<svg data-v-423bf9ae="" xmlns="http://www.w3.org/2000/svg" viewBox="0 0 585 105" class="iconLeftSlogan"><!----><!----><!----><g data-v-423bf9ae="" id="a30798fb-49fe-4568-ac53-1e10ebf43532" fill="black" transform="matrix(5.994006428013066,0,0,5.994006428013066,119.73037461756556,-44.23576860153318)"><path d="M2.49 13.43L2.49 17.18L1.37 17.18L1.37 8.43L5.94 8.43L5.82 9.37L2.49 9.37L2.49 12.50L5.38 12.50L5.38 13.43L2.49 13.43ZM8.74 14.14L8.74 17.18L7.62 17.18L7.62 8.43L10.93 8.43L10.93 8.43Q11.82 8.43 12.30 8.69L12.30 8.69L12.30 8.69Q12.78 8.96 12.99 9.58L12.99 9.58L12.99 9.58Q13.20 10.21 13.20 11.33L13.20 11.33L13.20 11.33Q13.20 12.36 13.00 12.97L13.00 12.97L13.00 12.97Q12.80 13.58 12.35 13.86L12.35 13.86L12.35 13.86Q11.90 14.14 11.14 14.14L11.14 14.14L8.74 14.14ZM8.74 13.22L10.98 13.22L10.98 13.22Q11.58 13.22 11.80 13.09L11.80 13.09L11.80 13.09Q12.03 12.96 12.03 12.63L12.03 12.63L12.03 9.95L12.03 9.95Q12.03 9.62 11.80 9.49L11.80 9.49L11.80 9.49Q11.58 9.37 10.98 9.37L10.98 9.37L8.74 9.37L8.74 13.22ZM14.87 17.18L14.87 8.43L15.99 8.43L15.99 16.24L19.32 16.24L19.32 17.18L14.87 17.18ZM25.61 14.14L25.61 17.18L24.49 17.18L24.49 8.43L27.80 8.43L27.80 8.43Q28.69 8.43 29.17 8.69L29.17 8.69L29.17 8.69Q29.65 8.96 29.86 9.58L29.86 9.58L29.86 9.58Q30.07 10.21 30.07 11.33L30.07 11.33L30.07 11.33Q30.07 12.36 29.87 12.97L29.87 12.97L29.87 12.97Q29.67 13.58 29.22 13.86L29.22 13.86L29.22 13.86Q28.77 14.14 28.01 14.14L28.01 14.14L25.61 14.14ZM25.61 13.22L27.85 13.22L27.85 13.22Q28.45 13.22 28.67 13.09L28.67 13.09L28.67 13.09Q28.90 12.96 28.90 12.63L28.90 12.63L28.90 9.95L28.90 9.95Q28.90 9.62 28.67 9.49L28.67 9.49L28.67 9.49Q28.45 9.37 27.85 9.37L27.85 9.37L25.61 9.37L25.61 13.22ZM32.24 10.18L32.68 11.33L32.68 11.33Q33.35 10.74 33.79 10.42L33.79 10.42L33.79 10.42Q34.23 10.11 34.57 9.97L34.57 9.97L34.71 11.07L34.71 11.07Q34.23 11.23 33.73 11.49L33.73 11.49L33.73 11.49Q33.22 11.76 32.86 12.04L32.86 12.04L32.86 17.18L31.74 17.18L31.74 10.18L32.24 10.18ZM38.63 16.38L38.63 16.38Q39.20 16.38 39.73 16.31L39.73 16.31L39.73 16.31Q40.26 16.24 41.03 16.06L41.03 16.06L41.19 16.90L41.19 16.90Q40.71 17.08 39.96 17.19L39.96 17.19L39.96 17.19Q39.20 17.30 38.39 17.30L38.39 17.30L38.39 17.30Q37.32 17.30 36.80 17.01L36.80 17.01L36.80 17.01Q36.27 16.72 36.07 15.95L36.07 15.95L36.07 15.95Q35.87 15.19 35.87 13.68L35.87 13.68L35.87 13.68Q35.87 12.24 36.11 11.47L36.11 11.47L36.11 11.47Q36.36 10.70 36.95 10.37L36.95 10.37L36.95 10.37Q37.55 10.05 38.67 10.05L38.67 10.05L38.67 10.05Q39.77 10.05 40.34 10.23L40.34 10.23L40.34 10.23Q40.91 10.40 41.14 10.83L41.14 10.83L41.14 10.83Q41.37 11.26 41.37 12.10L41.37 12.10L41.37 12.10Q41.37 13.16 41.10 13.59L41.10 13.59L41.10 13.59Q40.82 14.03 39.97 14.17L39.97 14.17L39.97 14.17Q39.12 14.31 37.03 14.31L37.03 14.31L37.03 16.21L37.03 16.21Q37.63 16.38 38.63 16.38L38.63 16.38ZM38.23 11.02L38.23 11.02Q37.53 11.02 37.28 11.20L37.28 11.20L37.28 11.20Q37.03 11.38 37.03 11.89L37.03 11.89L37.03 13.50L39.14 13.50L39.14 13.50Q39.86 13.50 40.11 13.31L40.11 13.31L40.11 13.31Q40.36 13.13 40.36 12.64L40.36 12.64L40.36 11.02L38.23 11.02ZM47.84 7.83L48.96 7.67L48.96 17.18L48.47 17.18L48.20 16.63L48.20 16.63Q47.94 17.07 47.42 17.23L47.42 17.23L47.42 17.23Q46.90 17.39 45.95 17.39L45.95 17.39L45.95 17.39Q44.81 17.39 44.28 17.12L44.28 17.12L44.28 17.12Q43.75 16.84 43.55 16.08L43.55 16.08L43.55 16.08Q43.36 15.32 43.36 13.68L43.36 13.68L43.36 13.68Q43.36 12.14 43.55 11.39L43.55 11.39L43.55 11.39Q43.74 10.64 44.23 10.35L44.23 10.35L44.23 10.35Q44.72 10.05 45.72 10.05L45.72 10.05L45.72 10.05Q46.52 10.05 47.03 10.14L47.03 10.14L47.03 10.14Q47.53 10.22 47.84 10.42L47.84 10.42L47.84 7.83ZM47.84 16.09L47.84 11.00L45.18 11.00L45.18 11.00Q44.79 11.00 44.65 11.07L44.65 11.07L44.65 11.07Q44.52 11.14 44.52 11.35L44.52 11.35L44.52 16.44L47.17 16.44L47.17 16.44Q47.57 16.44 47.70 16.37L47.70 16.37L47.70 16.37Q47.84 16.30 47.84 16.09L47.84 16.09ZM51.53 17.18L51.53 17.18ZM51.70 10.22L52.82 10.04L52.82 17.18L51.70 17.18L51.70 10.22ZM52.28 8.83L52.28 8.83Q51.84 8.83 51.69 8.69L51.69 8.69L51.69 8.69Q51.53 8.54 51.53 8.12L51.53 8.12L51.53 8.12Q51.53 7.69 51.69 7.53L51.69 7.53L51.69 7.53Q51.84 7.38 52.28 7.38L52.28 7.38L52.28 7.38Q52.70 7.38 52.84 7.53L52.84 7.53L52.84 7.53Q52.99 7.69 52.99 8.12L52.99 8.12L52.99 8.12Q52.99 8.54 52.85 8.69L52.85 8.69L52.85 8.69Q52.71 8.83 52.28 8.83L52.28 8.83ZM57.50 17.30L57.50 17.30Q56.48 17.30 55.99 17.02L55.99 17.02L55.99 17.02Q55.50 16.73 55.31 15.97L55.31 15.97L55.31 15.97Q55.12 15.22 55.12 13.68L55.12 13.68L55.12 13.68Q55.12 12.12 55.31 11.38L55.31 11.38L55.31 11.38Q55.50 10.63 55.99 10.34L55.99 10.34L55.99 10.34Q56.48 10.05 57.50 10.05L57.50 10.05L57.50 10.05Q58.76 10.05 59.75 10.29L59.75 10.29L59.60 11.19L59.60 11.19Q58.51 10.98 57.54 10.98L57.54 10.98L57.54 10.98Q56.83 10.98 56.55 11.24L56.55 11.24L56.55 11.24Q56.27 11.51 56.27 12.18L56.27 12.18L56.27 16.21L56.27 16.21Q56.81 16.38 57.83 16.38L57.83 16.38L57.83 16.38Q58.28 16.38 58.71 16.31L58.71 16.31L58.71 16.31Q59.14 16.24 59.77 16.06L59.77 16.06L59.91 16.90L59.91 16.90Q59.46 17.09 58.81 17.20L58.81 17.20L58.81 17.20Q58.17 17.30 57.50 17.30L57.50 17.30ZM64.79 10.98L63.49 10.98L63.49 16.34L63.49 16.34Q64.39 16.39 64.51 16.39L64.51 16.39L64.44 17.16L64.44 17.16Q63.64 17.30 63.25 17.30L63.25 17.30L63.25 17.30Q62.37 17.30 62.37 16.35L62.37 16.35L62.37 10.98L61.33 10.98L61.33 10.18L62.37 10.18L62.37 8.61L63.49 8.33L63.49 10.18L64.79 10.18L64.79 10.98ZM69.30 17.30L69.30 17.30Q68.05 17.30 67.45 17.02L67.45 17.02L67.45 17.02Q66.85 16.73 66.63 15.98L66.63 15.98L66.63 15.98Q66.40 15.23 66.40 13.68L66.40 13.68L66.40 13.68Q66.40 12.12 66.63 11.38L66.63 11.38L66.63 11.38Q66.85 10.63 67.45 10.34L67.45 10.34L67.45 10.34Q68.05 10.05 69.30 10.05L69.30 10.05L69.30 10.05Q70.56 10.05 71.16 10.33L71.16 10.33L71.16 10.33Q71.76 10.61 71.99 11.36L71.99 11.36L71.99 11.36Q72.21 12.11 72.21 13.68L72.21 13.68L72.21 13.68Q72.21 15.23 71.99 15.98L71.99 15.98L71.99 15.98Q71.76 16.73 71.16 17.02L71.16 17.02L71.16 17.02Q70.55 17.30 69.30 17.30L69.30 17.30ZM67.55 16.35L70.36 16.35L70.36 16.35Q70.78 16.35 70.92 16.28L70.92 16.28L70.92 16.28Q71.06 16.21 71.06 16.00L71.06 16.00L71.06 11.00L68.25 11.00L68.25 11.00Q67.83 11.00 67.69 11.07L67.69 11.07L67.69 11.07Q67.55 11.14 67.55 11.35L67.55 11.35L67.55 16.35ZM75.01 10.18L75.45 11.33L75.45 11.33Q76.12 10.74 76.56 10.42L76.56 10.42L76.56 10.42Q77 10.11 77.34 9.97L77.34 9.97L77.48 11.07L77.48 11.07Q77 11.23 76.50 11.49L76.50 11.49L76.50 11.49Q75.99 11.76 75.63 12.04L75.63 12.04L75.63 17.18L74.51 17.18L74.51 10.18L75.01 10.18Z"></path></g><!----><g data-v-423bf9ae="" id="7c3a8c60-f8d8-4f4c-871a-e40b70981dc6" transform="matrix(1.0794201321072048,0,0,1.0794201321072048,0.028847408809255626,-0.5448658274919751)" stroke="none" fill="black"><path d="M55.316 20.47c5.237-.656 8.948-5.435 8.297-10.674A9.557 9.557 0 0 0 52.939 1.5a9.557 9.557 0 0 0-8.296 10.674c.653 5.239 5.435 8.955 10.673 8.296zM16.801 59.276c2.823-.208 2.137-3.309 2.137-3.309s-2.499-6.361-6.565-8.476c-2.959-1.537-5.251-2.382-8.85-.19-6.557 5.249-1.949 9.588-1.949 9.588l8.145 6.205.625-.671c.06-.069.133-.142.206-.22l1.281-1.373c1.047-1.063 2.805-1.521 4.97-1.554zM61.913 38.217s8.198-11.597 12.704-17.746c4.601-6.247-3.707-10.015-3.707-10.015L52.25 35.449l-5.089 23.832s-23.325.219-28.145 1.312c-4.823 1.098-6.834 5.911-7.338 7.277-.641 1.744.863 3.75.863 3.75s18.443 24.857 18.815 25.488c.369.633 2.577 2.393 4.835.845 2.758-1.889 1.272-4.281 1.272-4.281l-15.6-21.78c3.619-.671 5.442 2.602 5.442 2.602s7.065.458 18.67-2.734C57.579 68.565 58.78 57.406 58.78 57.406l3.133-19.189zM79.789 44.157c-2.161-.885-3.757.34-3.757.34L62.8 53.292c1.438 5.789-3.583 13.919-3.583 13.919l19.311-13.977s7.666 4.694 11.825 7.062c6.047 3.334 9.648-3.725 9.648-3.725S81.069 44.682 79.789 44.157z"></path><path d="M38.92 77.411c-2.994.556-5.472.839-7.352.978l8.255 11.028s2.22 3.648 5.043 2.168c4.13-2.168 1.422-5.604 1.422-5.604l-7.368-8.57z"></path></g><!----><g data-v-423bf9ae="" id="31866e3a-7643-4198-a802-9ec977d5e950" fill="black" transform="matrix(1.2474385454691561,0,0,1.2474385454691561,127.06896896975633,55.27220632544456)"><path d="M12.57 4.44C12.75 4.42 12.85 4.34 12.85 4.19L12.85 3.92L11.68 3.92L11.17 3.92C11.10 3.92 11.06 3.92 11.02 3.93C10.98 3.95 10.95 3.99 10.91 4.05L7.01 10.92C6.97 10.99 6.94 11.06 6.92 11.13C6.89 11.20 6.86 11.28 6.83 11.35C6.78 11.20 6.72 11.06 6.65 10.93L2.65 4.05C2.60 3.99 2.58 3.95 2.53 3.93C2.49 3.92 2.45 3.92 2.38 3.92L1.89 3.92L0.70 3.92L0.70 4.19C0.70 4.34 0.80 4.42 0.98 4.44L1.12 4.44C1.19 4.44 1.29 4.45 1.43 4.45C1.57 4.45 1.72 4.47 1.89 4.47L1.89 13.26C1.72 13.26 1.57 13.27 1.43 13.27C1.29 13.27 1.19 13.29 1.12 13.29L0.98 13.29C0.80 13.30 0.70 13.38 0.70 13.54L0.70 13.82L1.89 13.82L2.51 13.82L3.72 13.82L3.72 13.54C3.72 13.38 3.63 13.30 3.44 13.29L3.30 13.29C3.23 13.29 3.12 13.27 2.98 13.27C2.84 13.27 2.67 13.26 2.51 13.26L2.51 5.38C2.51 5.25 2.51 5.12 2.49 4.98L6.50 11.91C6.57 12.04 6.66 12.10 6.78 12.10L6.89 12.10C7.01 12.10 7.10 12.04 7.17 11.91L11.06 4.98C11.05 5.12 11.05 5.25 11.05 5.38L11.05 13.26C10.88 13.26 10.71 13.27 10.57 13.27C10.43 13.27 10.32 13.29 10.25 13.29L10.11 13.29C9.93 13.30 9.83 13.38 9.83 13.54L9.83 13.82L11.05 13.82L11.68 13.82L12.85 13.82L12.85 13.54C12.85 13.38 12.75 13.30 12.57 13.29L12.45 13.29C12.38 13.29 12.26 13.27 12.12 13.27C11.98 13.27 11.84 13.26 11.68 13.26L11.68 4.47C11.84 4.47 11.98 4.45 12.12 4.45C12.26 4.45 12.38 4.44 12.45 4.44ZM30.49 13.22L30.03 13.17L26.25 3.91L25.54 3.91L21.74 13.17L21.29 13.22C21.11 13.23 21.03 13.33 21.03 13.50L21.03 13.82L21.48 13.82L21.77 13.82L22.02 13.82L22.12 13.82L23.44 13.82L23.44 13.50C23.44 13.31 23.32 13.23 23.11 13.22C23.10 13.22 23.07 13.20 23.03 13.20C22.99 13.20 22.93 13.19 22.83 13.19C22.74 13.19 22.61 13.19 22.47 13.17L23.45 10.75L23.52 10.57L28.25 10.57L28.32 10.75L29.30 13.17C29.16 13.19 29.05 13.19 28.95 13.19C28.85 13.19 28.78 13.20 28.74 13.20C28.70 13.20 28.67 13.22 28.66 13.22C28.45 13.23 28.34 13.31 28.34 13.50L28.34 13.82L29.65 13.82L29.75 13.82L30.02 13.82L30.30 13.82L30.76 13.82L30.76 13.50C30.76 13.33 30.67 13.23 30.49 13.22ZM25.69 5.22C25.72 5.14 25.76 5.04 25.79 4.94C25.82 4.84 25.86 4.75 25.89 4.63C25.91 4.75 25.96 4.84 25.98 4.94C26.01 5.04 26.05 5.12 26.08 5.21L28.04 10.04L23.74 10.04ZM47.49 13.29L47.40 13.29L47.22 13.29C47.14 13.29 47.04 13.27 46.94 13.27L42.91 9.06C42.83 8.96 42.76 8.89 42.67 8.83C42.59 8.78 42.50 8.74 42.41 8.71C42.49 8.68 42.56 8.64 42.63 8.58C42.70 8.53 42.78 8.46 42.87 8.36L46.66 4.45L46.93 4.45C47.01 4.45 47.07 4.44 47.11 4.44L47.19 4.44C47.38 4.42 47.47 4.34 47.47 4.19L47.47 3.91L46.49 3.91L46.37 3.91L44.56 3.91L44.56 4.19C44.56 4.34 44.66 4.42 44.84 4.44L45.01 4.44C45.11 4.44 45.23 4.45 45.40 4.45L45.85 4.45L42.18 8.22C42.13 8.27 42.07 8.33 42.03 8.36C41.99 8.39 41.93 8.40 41.87 8.43C41.82 8.44 41.78 8.47 41.71 8.47C41.64 8.48 41.55 8.48 41.47 8.48L40.88 8.48L40.88 4.45C41.05 4.45 41.20 4.44 41.34 4.44C41.48 4.44 41.58 4.42 41.65 4.42L41.79 4.42C41.97 4.41 42.06 4.33 42.06 4.17L42.06 3.91L40.88 3.91L40.17 3.91L38.99 3.91L38.99 4.17C38.99 4.33 39.09 4.41 39.27 4.42L39.40 4.42C39.47 4.42 39.58 4.44 39.72 4.44C39.86 4.44 40.00 4.45 40.17 4.45L40.17 13.26C40.00 13.26 39.86 13.27 39.72 13.27C39.58 13.27 39.47 13.29 39.40 13.29L39.27 13.29C39.09 13.30 38.99 13.38 38.99 13.54L38.99 13.82L40.17 13.82L40.88 13.82L42.06 13.82L42.06 13.54C42.06 13.38 41.97 13.30 41.79 13.29L41.65 13.29C41.58 13.29 41.48 13.27 41.34 13.27C41.20 13.27 41.05 13.26 40.88 13.26L40.88 9.04L41.52 9.04C41.64 9.04 41.73 9.04 41.80 9.06C41.87 9.07 41.93 9.09 41.99 9.11C42.04 9.14 42.10 9.17 42.14 9.21C42.18 9.25 42.22 9.28 42.28 9.34L46.13 13.27C45.99 13.27 45.82 13.29 45.65 13.29L45.25 13.29L45.07 13.29C44.88 13.30 44.79 13.38 44.79 13.54L44.79 13.82L46.66 13.82L46.72 13.82L46.89 13.82L47.47 13.82L47.77 13.82L47.77 13.54C47.77 13.38 47.67 13.30 47.49 13.29ZM57.23 3.92L56.04 3.92L56.04 4.19C56.04 4.34 56.14 4.42 56.32 4.44L56.46 4.44C56.53 4.44 56.63 4.45 56.77 4.45C56.91 4.45 57.06 4.47 57.23 4.47L57.23 13.26C57.06 13.26 56.91 13.27 56.77 13.27C56.63 13.27 56.53 13.29 56.46 13.29L56.32 13.29C56.14 13.30 56.06 13.38 56.06 13.54L56.06 13.82L57.23 13.82L63.17 13.82L63.17 13.22L63.17 11.76L62.82 11.76C62.62 11.76 62.54 11.89 62.52 12.11C62.52 12.14 62.51 12.19 62.51 12.29C62.51 12.39 62.51 12.53 62.50 12.74C62.48 12.95 62.47 13.09 62.47 13.22L57.95 13.22L57.95 9.09L61.89 9.09L61.89 8.51L57.95 8.51L57.95 4.51L62.47 4.51C62.50 5.12 62.52 5.50 62.52 5.63C62.54 5.85 62.62 5.96 62.82 5.96L63.17 5.96L63.17 4.51L63.17 3.92ZM90.26 3.92L90.19 3.92L89.63 3.92L89.52 3.92L88.12 3.92L88.12 4.19C88.12 4.34 88.21 4.42 88.40 4.44L88.51 4.44C88.56 4.44 88.63 4.45 88.75 4.45C88.86 4.45 88.98 4.47 89.12 4.47L86.53 8.64C86.46 8.75 86.41 8.85 86.37 8.95C86.32 9.04 86.28 9.16 86.24 9.25C86.20 9.16 86.16 9.04 86.11 8.95C86.07 8.85 86.02 8.75 85.95 8.64L83.34 4.47C83.48 4.47 83.61 4.45 83.72 4.45C83.83 4.45 83.92 4.44 83.97 4.44L84.07 4.44C84.25 4.42 84.35 4.34 84.35 4.19L84.35 3.92L82.95 3.92L82.84 3.92L82.28 3.92L82.21 3.92L81.76 3.92L81.76 4.19C81.76 4.34 81.86 4.42 82.04 4.44C82.28 4.45 82.46 4.47 82.56 4.47L85.88 9.73L85.88 13.26C85.71 13.26 85.55 13.27 85.41 13.27C85.27 13.27 85.18 13.29 85.11 13.29L84.98 13.29C84.80 13.30 84.70 13.38 84.70 13.54L84.70 13.82L85.88 13.82L86.59 13.82L87.77 13.82L87.77 13.54C87.77 13.38 87.68 13.30 87.50 13.29L87.36 13.29C87.29 13.29 87.19 13.27 87.05 13.27C86.91 13.27 86.76 13.26 86.59 13.26L86.59 9.73L89.91 4.47C90.02 4.47 90.19 4.45 90.43 4.44C90.61 4.42 90.71 4.34 90.71 4.19L90.71 3.92ZM107.45 8.86C107.45 8.11 107.32 7.41 107.10 6.79C106.88 6.17 106.55 5.64 106.13 5.19C105.71 4.75 105.22 4.40 104.65 4.16C104.08 3.92 103.42 3.79 102.72 3.79C102.02 3.79 101.39 3.92 100.81 4.16C100.24 4.40 99.74 4.75 99.32 5.19C98.90 5.64 98.57 6.17 98.35 6.79C98.13 7.41 98 8.11 98 8.86C98 9.63 98.13 10.33 98.35 10.95C98.57 11.56 98.90 12.10 99.32 12.54C99.74 12.99 100.24 13.33 100.81 13.57C101.39 13.80 102.02 13.93 102.72 13.93C103.42 13.93 104.08 13.80 104.65 13.57C105.22 13.33 105.71 12.99 106.13 12.54C106.55 12.10 106.88 11.56 107.10 10.95C107.32 10.33 107.45 9.63 107.45 8.86ZM106.69 8.86C106.69 9.56 106.61 10.18 106.41 10.72C106.22 11.27 105.95 11.75 105.60 12.12C105.25 12.50 104.83 12.81 104.34 13.01C103.85 13.20 103.32 13.30 102.72 13.30C102.13 13.30 101.60 13.20 101.11 13.01C100.62 12.81 100.20 12.50 99.85 12.12C99.50 11.75 99.22 11.27 99.02 10.72C98.83 10.18 98.74 9.56 98.74 8.86C98.74 8.18 98.83 7.55 99.02 7.00C99.22 6.45 99.50 5.98 99.85 5.60C100.20 5.22 100.62 4.91 101.11 4.72C101.60 4.52 102.13 4.41 102.72 4.41C103.32 4.41 103.85 4.52 104.34 4.72C104.83 4.91 105.25 5.22 105.60 5.60C105.95 5.98 106.22 6.45 106.41 7.00C106.61 7.55 106.69 8.18 106.69 8.86ZM123.69 3.92L122.98 3.92L121.62 3.92L121.62 4.19C121.62 4.34 121.72 4.42 121.90 4.44L122.07 4.44C122.16 4.44 122.30 4.45 122.47 4.45C122.64 4.45 122.81 4.47 122.98 4.47L122.98 10.04C122.98 10.50 122.91 10.92 122.77 11.33C122.63 11.73 122.43 12.08 122.16 12.38C121.90 12.67 121.59 12.89 121.21 13.06C120.83 13.23 120.41 13.31 119.94 13.31C119.46 13.31 119.03 13.23 118.65 13.06C118.27 12.89 117.95 12.66 117.70 12.36C117.43 12.07 117.25 11.72 117.11 11.33C116.97 10.93 116.90 10.50 116.90 10.04L116.90 4.47C117.07 4.47 117.24 4.45 117.40 4.45C117.57 4.45 117.71 4.44 117.81 4.44L117.98 4.44C118.16 4.42 118.26 4.34 118.26 4.19L118.26 3.92L116.90 3.92L116.19 3.92L115.01 3.92L115.01 4.19C115.01 4.34 115.09 4.42 115.28 4.44L115.42 4.44C115.49 4.44 115.58 4.45 115.72 4.45C115.86 4.45 116.02 4.47 116.19 4.47L116.19 10.04C116.19 10.58 116.27 11.09 116.44 11.56C116.61 12.04 116.86 12.46 117.18 12.81C117.50 13.16 117.91 13.44 118.37 13.64C118.83 13.83 119.36 13.93 119.94 13.93C120.51 13.93 121.03 13.83 121.49 13.64C121.95 13.44 122.36 13.16 122.68 12.81C123.00 12.46 123.26 12.04 123.42 11.56C123.59 11.09 123.69 10.58 123.69 10.04L123.69 4.47C123.86 4.47 124.00 4.45 124.14 4.45C124.28 4.45 124.39 4.44 124.46 4.44L124.59 4.44C124.77 4.42 124.87 4.34 124.87 4.19L124.87 3.92ZM140.88 13.29L140.78 13.29L140.60 13.29C140.52 13.29 140.43 13.27 140.35 13.27L137.38 9.53C137.30 9.42 137.19 9.32 137.07 9.25C137.51 9.21 137.90 9.11 138.25 8.96C138.60 8.81 138.88 8.61 139.13 8.37C139.37 8.13 139.57 7.85 139.69 7.55C139.82 7.24 139.89 6.89 139.89 6.51C139.89 5.66 139.61 5.03 139.05 4.58C138.49 4.14 137.63 3.92 136.49 3.92L134.08 3.92L132.90 3.92L132.90 4.19C132.90 4.34 132.99 4.42 133.17 4.44L133.31 4.44C133.38 4.44 133.48 4.45 133.62 4.45C133.76 4.45 133.91 4.47 134.08 4.47L134.08 13.26C133.91 13.26 133.76 13.27 133.62 13.27C133.48 13.27 133.38 13.29 133.31 13.29L133.17 13.29C132.99 13.30 132.89 13.38 132.89 13.54L132.89 13.82L134.08 13.82L134.79 13.82L135.97 13.82L135.97 13.54C135.97 13.38 135.87 13.30 135.69 13.29L135.55 13.29C135.48 13.29 135.38 13.27 135.24 13.27C135.10 13.27 134.96 13.26 134.79 13.26L134.79 9.34L135.97 9.34C136.16 9.34 136.30 9.35 136.39 9.39C136.47 9.44 136.56 9.52 136.64 9.62L139.82 13.64C139.87 13.71 139.92 13.75 139.97 13.78C140.03 13.80 140.10 13.82 140.17 13.82L140.24 13.82L140.78 13.82L141.15 13.82L141.15 13.54C141.15 13.38 141.06 13.30 140.88 13.29ZM136.39 8.81L134.79 8.81L134.79 4.48L136.49 4.48C137.37 4.48 138.04 4.66 138.50 5.00C138.96 5.33 139.19 5.87 139.19 6.57C139.19 6.92 139.13 7.21 139.01 7.49C138.88 7.77 138.68 7.99 138.45 8.19C138.21 8.39 137.91 8.55 137.56 8.65C137.21 8.75 136.82 8.81 136.39 8.81ZM167.24 3.92L167.05 3.92L159.75 3.92L159.54 3.92L159.45 3.92L159.45 5.96L159.80 5.96C159.99 5.96 160.08 5.85 160.09 5.63C160.09 5.53 160.12 5.17 160.15 4.52L163.04 4.52L163.04 13.26C162.88 13.26 162.74 13.27 162.60 13.27C162.46 13.27 162.34 13.29 162.27 13.29L162.15 13.29C161.97 13.30 161.87 13.38 161.87 13.54L161.87 13.82L163.04 13.82L163.76 13.82L164.95 13.82L164.95 13.54C164.95 13.38 164.85 13.30 164.67 13.29L164.53 13.29C164.46 13.29 164.36 13.27 164.22 13.27C164.08 13.27 163.93 13.26 163.76 13.26L163.76 4.52L166.64 4.52C166.68 5.24 166.70 5.60 166.70 5.63C166.71 5.85 166.81 5.96 167.01 5.96L167.34 5.96L167.34 3.92ZM176.64 3.92L175.45 3.92L175.45 4.19C175.45 4.34 175.55 4.42 175.73 4.44L175.87 4.44C175.94 4.44 176.04 4.45 176.18 4.45C176.32 4.45 176.47 4.47 176.64 4.47L176.64 13.26C176.47 13.26 176.32 13.27 176.18 13.27C176.04 13.27 175.94 13.29 175.87 13.29L175.73 13.29C175.55 13.30 175.46 13.38 175.46 13.54L175.46 13.82L176.64 13.82L182.57 13.82L182.57 13.22L182.57 11.76L182.22 11.76C182.03 11.76 181.94 11.89 181.93 12.11C181.93 12.14 181.92 12.19 181.92 12.29C181.92 12.39 181.92 12.53 181.90 12.74C181.89 12.95 181.87 13.09 181.87 13.22L177.35 13.22L177.35 9.09L181.30 9.09L181.30 8.51L177.35 8.51L177.35 4.51L181.87 4.51C181.90 5.12 181.93 5.50 181.93 5.63C181.94 5.85 182.03 5.96 182.22 5.96L182.57 5.96L182.57 4.51L182.57 3.92ZM200.45 13.22L199.99 13.17L196.21 3.91L195.50 3.91L191.70 13.17L191.25 13.22C191.07 13.23 190.99 13.33 190.99 13.50L190.99 13.82L191.44 13.82L191.73 13.82L191.98 13.82L192.08 13.82L193.40 13.82L193.40 13.50C193.40 13.31 193.28 13.23 193.07 13.22C193.06 13.22 193.03 13.20 192.99 13.20C192.95 13.20 192.89 13.19 192.79 13.19C192.70 13.19 192.57 13.19 192.43 13.17L193.41 10.75L193.48 10.57L198.21 10.57L198.28 10.75L199.26 13.17C199.12 13.19 199.01 13.19 198.91 13.19C198.81 13.19 198.74 13.20 198.70 13.20C198.66 13.20 198.63 13.22 198.62 13.22C198.41 13.23 198.30 13.31 198.30 13.50L198.30 13.82L199.61 13.82L199.71 13.82L199.98 13.82L200.26 13.82L200.72 13.82L200.72 13.50C200.72 13.33 200.63 13.23 200.45 13.22ZM195.65 5.22C195.68 5.14 195.72 5.04 195.75 4.94C195.78 4.84 195.82 4.75 195.85 4.63C195.87 4.75 195.92 4.84 195.94 4.94C195.97 5.04 196.01 5.12 196.04 5.21L198.00 10.04L193.70 10.04ZM220.82 4.44C221.00 4.42 221.10 4.34 221.10 4.19L221.10 3.92L219.93 3.92L219.42 3.92C219.35 3.92 219.31 3.92 219.27 3.93C219.23 3.95 219.20 3.99 219.16 4.05L215.26 10.92C215.22 10.99 215.19 11.06 215.17 11.13C215.14 11.20 215.11 11.28 215.08 11.35C215.03 11.20 214.97 11.06 214.90 10.93L210.90 4.05C210.85 3.99 210.83 3.95 210.78 3.93C210.74 3.92 210.70 3.92 210.63 3.92L210.14 3.92L208.95 3.92L208.95 4.19C208.95 4.34 209.05 4.42 209.23 4.44L209.37 4.44C209.44 4.44 209.54 4.45 209.68 4.45C209.82 4.45 209.97 4.47 210.14 4.47L210.14 13.26C209.97 13.26 209.82 13.27 209.68 13.27C209.54 13.27 209.44 13.29 209.37 13.29L209.23 13.29C209.05 13.30 208.95 13.38 208.95 13.54L208.95 13.82L210.14 13.82L210.76 13.82L211.97 13.82L211.97 13.54C211.97 13.38 211.88 13.30 211.69 13.29L211.55 13.29C211.48 13.29 211.37 13.27 211.23 13.27C211.09 13.27 210.92 13.26 210.76 13.26L210.76 5.38C210.76 5.25 210.76 5.12 210.74 4.98L214.75 11.91C214.82 12.04 214.91 12.10 215.03 12.10L215.14 12.10C215.26 12.10 215.35 12.04 215.42 11.91L219.31 4.98C219.30 5.12 219.30 5.25 219.30 5.38L219.30 13.26C219.13 13.26 218.96 13.27 218.82 13.27C218.68 13.27 218.57 13.29 218.50 13.29L218.36 13.29C218.18 13.30 218.08 13.38 218.08 13.54L218.08 13.82L219.30 13.82L219.93 13.82L221.10 13.82L221.10 13.54C221.10 13.38 221.00 13.30 220.82 13.29L220.70 13.29C220.63 13.29 220.51 13.27 220.37 13.27C220.23 13.27 220.09 13.26 219.93 13.26L219.93 4.47C220.09 4.47 220.23 4.45 220.37 4.45C220.51 4.45 220.63 4.44 220.70 4.44ZM246.93 9.52C246.51 9.11 245.91 8.86 245.13 8.75C245.45 8.67 245.73 8.55 245.98 8.40C246.23 8.25 246.46 8.08 246.62 7.87C246.79 7.66 246.93 7.43 247.02 7.20C247.10 6.96 247.16 6.71 247.16 6.44C247.16 6.05 247.07 5.68 246.95 5.38C246.82 5.07 246.61 4.80 246.34 4.58C246.08 4.37 245.74 4.20 245.32 4.09C244.90 3.98 244.41 3.92 243.85 3.92L241.01 3.92L239.82 3.92L239.82 4.19C239.82 4.34 239.92 4.42 240.10 4.44L240.24 4.44C240.31 4.44 240.41 4.45 240.55 4.45C240.69 4.45 240.84 4.47 241.01 4.47L241.01 13.26C240.84 13.26 240.69 13.27 240.55 13.27C240.41 13.27 240.31 13.29 240.24 13.29L240.10 13.29C239.92 13.30 239.83 13.38 239.83 13.54L239.83 13.82L241.01 13.82L244.22 13.82C244.75 13.82 245.21 13.76 245.63 13.64C246.05 13.51 246.40 13.34 246.68 13.10C246.96 12.87 247.18 12.59 247.34 12.25C247.49 11.91 247.56 11.54 247.56 11.12C247.56 10.46 247.35 9.93 246.93 9.52ZM241.72 4.48L243.85 4.48C244.73 4.48 245.39 4.66 245.81 5.00C246.23 5.35 246.44 5.84 246.44 6.51C246.44 6.76 246.40 7.03 246.30 7.27C246.20 7.50 246.05 7.71 245.84 7.91C245.63 8.11 245.36 8.26 245.04 8.37C244.72 8.48 244.33 8.55 243.87 8.55L241.72 8.55ZM246.18 12.68C245.73 13.06 245.07 13.24 244.20 13.24L241.72 13.24L241.72 9.07L244.22 9.07C244.64 9.07 245 9.11 245.32 9.21C245.64 9.31 245.92 9.45 246.15 9.62C246.37 9.80 246.54 10.00 246.67 10.25C246.78 10.50 246.85 10.79 246.85 11.10C246.85 11.79 246.62 12.31 246.18 12.68ZM256.94 3.92L255.75 3.92L255.75 4.19C255.75 4.34 255.85 4.42 256.03 4.44L256.17 4.44C256.24 4.44 256.34 4.45 256.48 4.45C256.62 4.45 256.77 4.47 256.94 4.47L256.94 13.26C256.77 13.26 256.62 13.27 256.48 13.27C256.34 13.27 256.24 13.29 256.17 13.29L256.03 13.29C255.85 13.30 255.77 13.38 255.77 13.54L255.77 13.82L256.94 13.82L262.88 13.82L262.88 13.22L262.88 11.76L262.53 11.76C262.33 11.76 262.25 11.89 262.23 12.11C262.23 12.14 262.22 12.19 262.22 12.29C262.22 12.39 262.22 12.53 262.21 12.74C262.19 12.95 262.18 13.09 262.18 13.22L257.66 13.22L257.66 9.09L261.60 9.09L261.60 8.51L257.66 8.51L257.66 4.51L262.18 4.51C262.21 5.12 262.23 5.50 262.23 5.63C262.25 5.85 262.33 5.96 262.53 5.96L262.88 5.96L262.88 4.51L262.88 3.92ZM277.19 9.91C277.05 9.65 276.85 9.39 276.61 9.21C276.37 9.03 276.12 8.88 275.83 8.75C275.53 8.62 275.21 8.51 274.90 8.41C274.60 8.32 274.29 8.20 273.99 8.11C273.70 7.99 273.43 7.87 273.20 7.71C272.96 7.56 272.78 7.38 272.64 7.15C272.50 6.93 272.41 6.65 272.41 6.31C272.41 6.06 272.47 5.82 272.57 5.59C272.66 5.35 272.80 5.15 272.99 4.97C273.17 4.79 273.39 4.65 273.67 4.55C273.95 4.45 274.26 4.40 274.62 4.40C275.30 4.40 275.91 4.51 276.47 4.75C276.51 5.54 276.54 5.99 276.54 6.06C276.56 6.29 276.64 6.41 276.84 6.41L277.17 6.41L277.17 4.38C276.29 4.00 275.45 3.81 274.62 3.81C274.16 3.81 273.76 3.88 273.39 4.02C273.03 4.16 272.73 4.34 272.50 4.58C272.26 4.82 272.06 5.08 271.94 5.39C271.81 5.70 271.75 6.02 271.75 6.36C271.75 6.78 271.82 7.14 271.96 7.42C272.10 7.70 272.30 7.92 272.54 8.12C272.78 8.32 273.03 8.46 273.32 8.58C273.62 8.71 273.94 8.82 274.25 8.92C274.55 9.02 274.85 9.11 275.16 9.21C275.45 9.31 275.72 9.45 275.95 9.60C276.19 9.76 276.37 9.94 276.51 10.16C276.65 10.39 276.72 10.68 276.72 11.03C276.72 11.35 276.67 11.66 276.56 11.94C276.44 12.22 276.29 12.46 276.08 12.67C275.87 12.88 275.60 13.05 275.30 13.16C274.99 13.29 274.64 13.33 274.25 13.33C273.46 13.33 272.80 13.20 272.27 12.95C272.26 12.75 272.26 12.54 272.24 12.32C272.23 12.10 272.23 11.91 272.22 11.76C272.20 11.61 272.20 11.52 272.20 11.51C272.19 11.28 272.09 11.17 271.89 11.17L271.56 11.17L271.56 13.02L271.56 13.20L271.56 13.38C272.41 13.75 273.29 13.93 274.22 13.93C274.72 13.93 275.17 13.85 275.56 13.69C275.95 13.54 276.29 13.31 276.56 13.05C276.82 12.78 277.05 12.46 277.19 12.10C277.33 11.73 277.40 11.34 277.40 10.92C277.40 10.51 277.33 10.18 277.19 9.91ZM293.17 3.92L292.98 3.92L285.68 3.92L285.47 3.92L285.38 3.92L285.38 5.96L285.73 5.96C285.92 5.96 286.01 5.85 286.02 5.63C286.02 5.53 286.05 5.17 286.08 4.52L288.97 4.52L288.97 13.26C288.81 13.26 288.67 13.27 288.53 13.27C288.39 13.27 288.27 13.29 288.20 13.29L288.08 13.29C287.90 13.30 287.80 13.38 287.80 13.54L287.80 13.82L288.97 13.82L289.69 13.82L290.88 13.82L290.88 13.54C290.88 13.38 290.78 13.30 290.60 13.29L290.46 13.29C290.39 13.29 290.29 13.27 290.15 13.27C290.01 13.27 289.86 13.26 289.69 13.26L289.69 4.52L292.57 4.52C292.61 5.24 292.63 5.60 292.63 5.63C292.64 5.85 292.74 5.96 292.94 5.96L293.27 5.96L293.27 3.92Z"></path></g></svg>